<svg xmlns="http://www.w3.org/2000/svg" viewBox="0 0 750 750" xml:space="preserve"><linearGradient id="a" gradientUnits="userSpaceOnUse" x1="375.25" y1="67.75" x2="375.25" y2="683.5"><stop offset=".073" stop-color="#5edbff"/><stop offset=".159" stop-color="#55d4ff"/><stop offset=".301" stop-color="#3cc0ff"/><stop offset=".48" stop-color="#139fff"/><stop offset=".554" stop-color="#0090ff"/><stop offset=".747" stop-color="#006ae3"/><stop offset="1" stop-color="#03b"/></linearGradient><circle fill="url(#a)" stroke="#000" stroke-width="35" stroke-miterlimit="10" cx="375.3" cy="372.3" r="337.3"/><linearGradient id="b" gradientUnits="userSpaceOnUse" x1="375.25" y1="91.342" x2="375.25" y2="656.601"><stop offset="0" stop-color="#0df"/><stop offset=".191" stop-color="#00c8ff"/><stop offset=".585" stop-color="#0093ff"/><stop offset="1" stop-color="#05f"/></linearGradient><circle fill="url(#b)" cx="375.3" cy="372.3" r="309.6"/><path d="M308 290.8c0 20.1-7 38.5-18.7 53 0 0-39-8.8-65.4-8.8-26.4 0-65.4 8.9-65.4 8.9-11.8-14.5-18.8-32.9-18.8-53 0-46.5 37.7-84.2 84.2-84.2s84.1 37.6 84.1 84.1z"/><circle fill="#FFF" cx="187.5" cy="256.9" r="25.3"/><path d="M84 165s5-79 121-101c89.8-17 122.8 40.9 122.8 40.9s-88-19.5-142.3 0C112.9 131 84 165 84 165zM665.5 162.7S647.9 83 545.5 64c-90.8-16.9-131.8 40.9-131.8 40.9s87-19.5 141.3 0c72.6 26.1 110.5 57.8 110.5 57.8zM611 290.8c0 20.1-7 38.5-18.7 53 0 0-39-8.8-65.4-8.8-26.4 0-65.4 8.9-65.4 8.9-11.8-14.5-18.8-32.9-18.8-53 0-46.5 37.7-84.2 84.2-84.2 46.4-.1 84.1 37.6 84.1 84.1z"/><circle fill="#FFF" cx="492.5" cy="256.9" r="25.3"/><path fill="#200" stroke="#000" stroke-width="12" stroke-miterlimit="10" d="M104.1 384.5s108.7 34 278.2 34c149.8 0 264.8-34 264.8-34-7 149.5-139 250-271.8 250-192.3 0-275.3-178.5-271.2-250z"/><path fill="#401" d="M405 550.5c0 49-5.6 75.3-27 76.5-131 7.5-250-100-267-225.5 0 0 90.5 45.5 287 45 0 0 7 55 7 104z"/><path fill="#A13" stroke="#000" stroke-width="5" stroke-miterlimit="10" d="M343.5 629.5c-59.8-2-113.6-41.2-113.6-41.2 8.2-22 32.2-50.4 77.7-50.4 44.7 0 50.4 9.1 67.4 26.2"/><path fill="#A13" stroke="#000" stroke-width="5" stroke-miterlimit="10" d="M360.1 576.8c18.7-19.9 33.8-38.9 70-41.9 59-.5 93 28.5 93 51.4 0 0-79.6 52.7-182.1 43.1"/><path fill="#E36" d="M336.6 571.8c-5.1 7.2-6.3 6-24.4 7.2-11.6.8-20.8-1.3-20.8-1.3-7.5-3.6-11.8-9.8-11.8-18.3 3.3-10.8 16.3-13.1 32.5-11.8 12.5 1.1 36.4 7.4 24.5 24.2zM448.8 578.2c-4.1 6.2-11.3 8.3-24.6 8.3-20.6 0-28-6-28.4-14.1-1.2-27.7 19.8-29 32.8-28.8 12.3.3 38.1 7.4 20.2 34.6z"/></svg>