<svg width="120" height="24" fill="none" xmlns="http://www.w3.org/2000/svg"><g clip-path="url(#a)"><path fill-rule="evenodd" clip-rule="evenodd" d="M16.514 6.602 14.69 2.907c-1.1-2.23-4.28-2.23-5.38 0L7.485 6.602l-4.08.593c-2.46.358-3.443 3.381-1.663 5.117l2.952 2.878-.697 4.062c-.42 2.45 2.152 4.32 4.352 3.163L12 20.497l3.649 1.918c2.2 1.157 4.773-.712 4.352-3.163l-.697-4.062 2.952-2.878c1.78-1.736.798-4.76-1.663-5.117l-4.08-.593Zm-3.618-2.81a1 1 0 0 0-1.793 0L9.046 7.959a1 1 0 0 1-.752.547l-4.6.668a1 1 0 0 0-.555 1.706l3.329 3.245a1 1 0 0 1 .287.885l-.786 4.58a1 1 0 0 0 1.451 1.055l4.114-2.163a1 1 0 0 1 .93 0l4.115 2.163a1 1 0 0 0 1.451-1.055l-.786-4.58a1 1 0 0 1 .288-.885l3.328-3.245a1 1 0 0 0-.554-1.706l-4.6-.668a1 1 0 0 1-.753-.547l-2.057-4.167Z" fill="#fff"/><path d="M11.1 3.792a1 1 0 0 1 1.794 0l2.056 4.167a1 1 0 0 0 .754.547l4.6.668a1 1 0 0 1 .554 1.706l-3.329 3.245a1 1 0 0 0-.287.885l.786 4.58a1 1 0 0 1-1.451 1.055l-4.114-2.163a1 1 0 0 0-.93 0l-4.115 2.163a1 1 0 0 1-1.451-1.055l.786-4.58a1 1 0 0 0-.288-.885L3.137 10.88a1 1 0 0 1 .554-1.706l4.6-.668a1 1 0 0 0 .753-.547l2.057-4.167Z" fill="#FC0" stroke="#000" stroke-width="1.5" stroke-linecap="round" stroke-linejoin="round"/></g><g clip-path="url(#b)"><path fill-rule="evenodd" clip-rule="evenodd" d="M40.514 6.602 38.69 2.907c-1.1-2.23-4.28-2.23-5.38 0l-1.824 3.695-4.08.593c-2.46.358-3.443 3.381-1.663 5.117l2.952 2.878-.697 4.062c-.42 2.45 2.151 4.32 4.352 3.163L36 20.497l3.649 1.918c2.2 1.157 4.773-.712 4.352-3.163l-.697-4.062 2.952-2.878c1.78-1.736.798-4.76-1.663-5.117l-4.08-.593Zm-3.618-2.81a1 1 0 0 0-1.793 0l-2.056 4.167a1 1 0 0 1-.753.547l-4.6.668a1 1 0 0 0-.555 1.706l3.329 3.245a1 1 0 0 1 .287.885l-.786 4.58a1 1 0 0 0 1.451 1.055l4.114-2.163a1 1 0 0 1 .93 0l4.115 2.163a1 1 0 0 0 1.451-1.055l-.786-4.58a1 1 0 0 1 .288-.885l3.328-3.245a1 1 0 0 0-.554-1.706l-4.6-.668a1 1 0 0 1-.753-.547l-2.057-4.167Z" fill="#fff"/><path d="M35.1 3.792a1 1 0 0 1 1.794 0l2.056 4.167a1 1 0 0 0 .753.547l4.6.668a1 1 0 0 1 .555 1.706l-3.329 3.245a1 1 0 0 0-.287.885l.786 4.58a1 1 0 0 1-1.451 1.055l-4.114-2.163a1 1 0 0 0-.93 0l-4.115 2.163a1 1 0 0 1-1.451-1.055l.786-4.58a1 1 0 0 0-.288-.885l-3.328-3.245a1 1 0 0 1 .554-1.706l4.6-.668a1 1 0 0 0 .753-.547l2.057-4.167Z" fill="#FC0" stroke="#000" stroke-width="1.5" stroke-linecap="round" stroke-linejoin="round"/></g><g clip-path="url(#c)"><path fill-rule="evenodd" clip-rule="evenodd" d="M64.513 6.602 62.69 2.907c-1.1-2.23-4.28-2.23-5.38 0l-1.824 3.695-4.08.593c-2.46.358-3.443 3.381-1.663 5.117l2.952 2.878-.697 4.062c-.42 2.45 2.152 4.32 4.352 3.163L60 20.497l3.649 1.918c2.2 1.157 4.773-.712 4.352-3.163l-.697-4.062 2.952-2.878c1.78-1.736.798-4.76-1.663-5.117l-4.08-.593Zm-3.617-2.81a1 1 0 0 0-1.793 0l-2.056 4.167a1 1 0 0 1-.753.547l-4.6.668a1 1 0 0 0-.555 1.706l3.329 3.245a1 1 0 0 1 .287.885l-.786 4.58a1 1 0 0 0 1.451 1.055l4.114-2.163a1 1 0 0 1 .93 0l4.115 2.163a1 1 0 0 0 1.451-1.055l-.786-4.58a1 1 0 0 1 .288-.885l3.328-3.245a1 1 0 0 0-.554-1.706l-4.6-.668a1 1 0 0 1-.753-.547l-2.057-4.167Z" fill="#fff"/><path d="M59.1 3.792a1 1 0 0 1 1.794 0l2.056 4.167a1 1 0 0 0 .753.547l4.6.668a1 1 0 0 1 .555 1.706l-3.329 3.245a1 1 0 0 0-.287.885l.786 4.58a1 1 0 0 1-1.451 1.055l-4.114-2.163a1 1 0 0 0-.93 0l-4.115 2.163a1 1 0 0 1-1.451-1.055l.786-4.58a1 1 0 0 0-.288-.885l-3.328-3.245a1 1 0 0 1 .554-1.706l4.6-.668a1 1 0 0 0 .753-.547l2.057-4.167Z" fill="#FC0" stroke="#000" stroke-width="1.5" stroke-linecap="round" stroke-linejoin="round"/></g><g clip-path="url(#d)"><path fill-rule="evenodd" clip-rule="evenodd" d="M88.513 6.602 86.69 2.907c-1.1-2.23-4.28-2.23-5.38 0l-1.824 3.695-4.08.593c-2.46.358-3.443 3.381-1.663 5.117l2.952 2.878-.697 4.062c-.42 2.45 2.151 4.32 4.352 3.163L84 20.497l3.649 1.918c2.2 1.157 4.773-.712 4.352-3.163l-.697-4.062 2.952-2.878c1.78-1.736.798-4.76-1.663-5.117l-4.08-.593Zm-3.617-2.81a1 1 0 0 0-1.793 0l-2.056 4.167a1 1 0 0 1-.754.547l-4.6.668a1 1 0 0 0-.554 1.706l3.329 3.245a1 1 0 0 1 .287.885l-.786 4.58a1 1 0 0 0 1.451 1.055l4.114-2.163a1 1 0 0 1 .93 0l4.115 2.163a1 1 0 0 0 1.451-1.055l-.786-4.58a1 1 0 0 1 .288-.885l3.328-3.245a1 1 0 0 0-.554-1.706l-4.6-.668a1 1 0 0 1-.753-.547l-2.057-4.167Z" fill="#fff"/><path d="M83.1 3.792a1 1 0 0 1 1.794 0l2.056 4.167a1 1 0 0 0 .754.547l4.6.668a1 1 0 0 1 .554 1.706l-3.329 3.245a1 1 0 0 0-.287.885l.786 4.58a1 1 0 0 1-1.451 1.055l-4.114-2.163a1 1 0 0 0-.93 0l-4.115 2.163a1 1 0 0 1-1.451-1.055l.786-4.58a1 1 0 0 0-.288-.885l-3.328-3.245a1 1 0 0 1 .554-1.706l4.6-.668a1 1 0 0 0 .753-.547l2.057-4.167Z" fill="#FC0" stroke="#000" stroke-width="1.5" stroke-linecap="round" stroke-linejoin="round"/></g><g clip-path="url(#e)"><path fill-rule="evenodd" clip-rule="evenodd" d="m112.513 6.602-1.823-3.695c-1.101-2.23-4.28-2.23-5.381 0l-1.823 3.695-4.08.593c-2.46.358-3.443 3.381-1.663 5.117l2.952 2.878-.697 4.062c-.42 2.45 2.152 4.32 4.352 3.163l3.65-1.918 3.649 1.918c2.201 1.157 4.773-.712 4.352-3.163l-.697-4.062 2.952-2.878c1.78-1.736.798-4.76-1.663-5.117l-4.08-.593Zm-3.617-2.81a1 1 0 0 0-1.793 0l-2.057 4.167a.999.999 0 0 1-.752.547l-4.6.668a1 1 0 0 0-.555 1.706l3.329 3.245a1 1 0 0 1 .287.885l-.786 4.58a1 1 0 0 0 1.451 1.055l4.114-2.163c.292-.153.64-.153.931 0l4.114 2.163a1 1 0 0 0 1.451-1.055l-.786-4.58a.998.998 0 0 1 .288-.885l3.328-3.245a1 1 0 0 0-.554-1.706l-4.6-.668a.998.998 0 0 1-.753-.547l-2.057-4.167Z" fill="#fff"/><path d="M107.101 3.792a1 1 0 0 1 1.793 0l2.056 4.167c.146.295.428.5.753.547l4.6.668a1 1 0 0 1 .555 1.706l-3.329 3.245a1 1 0 0 0-.287.885l.786 4.58a1 1 0 0 1-1.451 1.055l-4.114-2.163a1.002 1.002 0 0 0-.931 0l-4.114 2.163a1 1 0 0 1-1.451-1.055l.786-4.58a.998.998 0 0 0-.288-.885l-3.328-3.245a1 1 0 0 1 .554-1.706l4.6-.668a.998.998 0 0 0 .753-.547l2.057-4.167Z" fill="#FC0" stroke="#000" stroke-width="1.5" stroke-linecap="round" stroke-linejoin="round"/></g><defs><clipPath id="a"><path fill="#fff" transform="translate(0 1)" d="M0 0h24v22H0z"/></clipPath><clipPath id="b"><path fill="#fff" transform="translate(24 1)" d="M0 0h24v22H0z"/></clipPath><clipPath id="c"><path fill="#fff" transform="translate(48 1)" d="M0 0h24v22H0z"/></clipPath><clipPath id="d"><path fill="#fff" transform="translate(72 1)" d="M0 0h24v22H0z"/></clipPath><clipPath id="e"><path fill="#fff" transform="translate(96 1)" d="M0 0h24v22H0z"/></clipPath></defs></svg>