<svg xmlns="http://www.w3.org/2000/svg" viewBox="0 0 750 750" xml:space="preserve"><linearGradient id="a" gradientUnits="userSpaceOnUse" x1="375.25" y1="67.75" x2="375.25" y2="683.5"><stop offset=".048" stop-color="#e82"/><stop offset=".14" stop-color="#f07f1e"/><stop offset=".29" stop-color="#f66613"/><stop offset=".481" stop-color="#ff3d01"/><stop offset=".489" stop-color="#ff3b00"/><stop offset=".626" stop-color="#db2604"/><stop offset=".785" stop-color="#b81108"/><stop offset=".916" stop-color="#a2050a"/><stop offset="1" stop-color="#9a000b"/></linearGradient><circle fill="url(#a)" stroke="#000" stroke-width="35" stroke-miterlimit="10" cx="375.3" cy="372.3" r="337.3"/><linearGradient id="b" gradientUnits="userSpaceOnUse" x1="375.25" y1="91.342" x2="375.25" y2="656.601"><stop offset="0" stop-color="#f70"/><stop offset=".147" stop-color="#ff7200"/><stop offset=".309" stop-color="#ff6500"/><stop offset=".48" stop-color="#ff4f00"/><stop offset=".656" stop-color="#ff3000"/><stop offset=".834" stop-color="#ff0800"/><stop offset=".868" stop-color="red"/><stop offset=".943" stop-color="#ff000c"/><stop offset="1" stop-color="#f02"/></linearGradient><circle fill="url(#b)" cx="375.3" cy="372.3" r="309.6"/><path d="M183.1 166.3c17.4 10.3 34.7 20.6 52.1 30.9 27.7 16.4 55.3 32.8 83 49.2 6.3 3.8 12.7 7.5 19 11.3 7 4.1 16.5 1.6 20.5-5.4 4.1-7.1 1.6-16.4-5.4-20.5-17.4-10.3-34.7-20.6-52.1-30.9-27.7-16.4-55.3-32.8-83-49.2-6.3-3.8-12.7-7.5-19-11.3-7-4.1-16.5-1.6-20.5 5.4-4.1 7-1.6 16.3 5.4 20.5zM408.9 259c17.2-10.7 34.5-21.4 51.7-32.1 27.3-16.9 54.7-33.9 82-50.8 6.3-3.9 12.7-7.8 19-11.8 6.9-4.3 9.5-13.4 5.4-20.5-4-6.9-13.6-9.7-20.5-5.4-17.2 10.7-34.5 21.4-51.7 32.1-27.3 16.9-54.7 33.9-82 50.8-6.3 3.9-12.7 7.8-19 11.8-6.9 4.3-9.5 13.4-5.4 20.5 4 6.8 13.6 9.6 20.5 5.4zM312.8 311.9c0 24.7-9.9 44.6-28.3 58.3 0 0-27-4.9-43.9-4.9s-50.1 4.9-50.1 4.9c-18.4-13.7-28.3-33.6-28.3-58.3 0-35.3 24.3-64.9 57-73 5.8-1.5 31.4-1.3 37.6.3 32.3 8.5 56 37.9 56 72.7zM586.8 311.9c0 24.7-9.9 44.6-28.3 58.3 0 0-27-4.9-43.9-4.9s-50.1 4.9-50.1 4.9c-18.4-13.7-28.3-33.6-28.3-58.3 0-35.3 24.3-64.9 57-73 5.8-1.5 31.4-1.3 37.6.3 32.3 8.5 56 37.9 56 72.7z"/><circle fill="#FFF" cx="478.4" cy="286.3" r="21.1"/><circle fill="#FFF" cx="206.4" cy="286.3" r="21.1"/><path d="M213.5 466.6c2.7 11.8 15.6 12.7 24.2 8 3.2-1.8 6.3-3.6 9.5-5.4 5.4-3 10.8-5.8 16.3-8.4 3.4-1.6 6.9-3.2 10.3-4.7.5-.2 1.1-.5 1.6-.7.1 0-3 1.2-1.5.6l3-1.2c2.1-.8 4.2-1.7 6.3-2.5 9.2-3.5 18.6-6.5 28.1-9 5.2-1.4 10.3-2.6 15.6-3.6 2.8-.6 5.7-1.1 8.5-1.6 1.2-.2 2.5-.4 3.7-.6 1.1-.2 5.5-.8 2.3-.4 12.2-1.6 24.6-2.4 37-2.2 6.5.1 12.9.4 19.4 1 1.7.2 3.4.3 5.1.5.7.1 5.2.7 2.7.3 3.5.5 7 1.1 10.5 1.7 35.7 6.7 67 20.6 97.2 40.7 6.7 4.5 16.6 1.3 20.5-5.4 4.3-7.4 1.4-16-5.4-20.5-50.3-33.5-110-52-170.7-47.9-40.5 2.7-79.8 14.2-115.9 32.5-5.1 2.6-10.1 5.3-15 8.1-1.5.9-3 1.7-4.5 2.6-.4.2-.9.5-1.3.7-.1.1-.3.1-.4.2 2.6-2 8.2-2.2 11.1-1.4l6.6 3.9 3.9 6.6c-1.8-7.9-10.9-12.6-18.5-10.5-7.9 2.3-12 10.6-10.2 18.6zM317.4 505.9c34.4 17.6 79.1 17.9 113.8 0 4.3-2.2.5-8.7-3.8-6.5-9.9 5.1-21.3 8.1-32.2 10.1-25.2 4.6-51.2 1.5-74-10.1-4.3-2.2-8.1 4.3-3.8 6.5z"/></svg>