<svg xmlns="http://www.w3.org/2000/svg" viewBox="0 0 750 750" xml:space="preserve"><linearGradient id="a" gradientUnits="userSpaceOnUse" x1="375.25" y1="67.75" x2="375.25" y2="683.5"><stop offset=".048" stop-color="#6fa"/><stop offset=".1" stop-color="#60ffa1"/><stop offset=".184" stop-color="#51ff88"/><stop offset=".292" stop-color="#39ff5f"/><stop offset=".417" stop-color="#17ff26"/><stop offset=".495" stop-color="#0f0"/><stop offset=".604" stop-color="#03df00"/><stop offset=".842" stop-color="#0b8e00"/><stop offset="1" stop-color="#150"/></linearGradient><circle fill="url(#a)" stroke="#000" stroke-width="35" stroke-miterlimit="10" cx="375.3" cy="372.3" r="337.3"/><linearGradient id="b" gradientUnits="userSpaceOnUse" x1="375.25" y1="91.342" x2="375.25" y2="656.601"><stop offset="0" stop-color="#0f4"/><stop offset=".116" stop-color="#00ff3f"/><stop offset=".244" stop-color="#00ff32"/><stop offset=".379" stop-color="#00ff1c"/><stop offset=".505" stop-color="#0f0"/><stop offset=".584" stop-color="#02f000"/><stop offset=".734" stop-color="#07c900"/><stop offset=".939" stop-color="#0e8b00"/><stop offset="1" stop-color="#170"/></linearGradient><circle fill="url(#b)" cx="375.3" cy="372.3" r="309.6"/><circle cx="223.8" cy="311.8" r="84.2"/><circle fill="#FFF" cx="190.5" cy="283.9" r="25.3"/><circle cx="526.8" cy="311.8" r="84.2"/><circle fill="#FFF" cx="492.5" cy="283.9" r="25.3"/><path d="M647.8 408.5S566 534 383 534C179 534 97 405 97 405s117.1 92.9 286.1 92.9c134.7 0 264.7-89.4 264.7-89.4zM78 227.7S110 142 200 126s125.8 37.9 125.8 37.9-88-19.5-142.3 0C110.9 190 78 227.7 78 227.7zM666.4 227.7S635.8 146 545.4 127s-130.8 36.9-130.8 36.9 87-19.5 141.3 0c72.6 26.1 110.5 63.8 110.5 63.8z"/></svg>